<svg width="131" height="28" viewBox="0 0 131 28" fill="none" xmlns="http://www.w3.org/2000/svg">
<g id="logo" clip-path="url(#clip0_1368_581)">
<path id="Vector" d="M118.183 27.9088C116.314 27.9088 114.591 27.6066 113.016 27.0021C111.462 26.3977 110.111 25.5469 108.963 24.4499C107.837 23.3305 106.959 22.0321 106.328 20.5545C105.698 19.0769 105.383 17.465 105.383 15.7188C105.383 13.9725 105.698 12.3606 106.328 10.883C106.959 9.38309 107.837 8.08454 108.963 6.98758C110.111 5.89062 111.462 5.03985 113.016 4.43539C114.591 3.83092 116.314 3.52869 118.183 3.52869C120.052 3.52869 121.763 3.83092 123.317 4.43539C124.892 5.03985 126.243 5.89062 127.369 6.98758C128.518 8.08454 129.407 9.38309 130.037 10.883C130.668 12.3606 130.983 13.9725 130.983 15.7188C130.983 17.465 130.668 19.0769 130.037 20.5545C129.407 22.0321 128.518 23.3305 127.369 24.4499C126.243 25.5469 124.892 26.3977 123.317 27.0021C121.763 27.6066 120.052 27.9088 118.183 27.9088ZM118.183 22.0657C119.016 22.0657 119.77 21.909 120.446 21.5955C121.121 21.2597 121.695 20.8008 122.168 20.2187C122.641 19.6366 123.001 18.9649 123.249 18.2038C123.497 17.4202 123.621 16.5919 123.621 15.7188C123.621 14.8456 123.497 14.0285 123.249 13.2673C123.001 12.4837 122.641 11.801 122.168 11.2188C121.695 10.6367 121.121 10.189 120.446 9.87559C119.77 9.53977 119.016 9.37186 118.183 9.37186C117.35 9.37186 116.596 9.53977 115.92 9.87559C115.245 10.189 114.671 10.6367 114.198 11.2188C113.725 11.801 113.365 12.4837 113.117 13.2673C112.869 14.0285 112.745 14.8456 112.745 15.7188C112.745 16.5919 112.869 17.4202 113.117 18.2038C113.365 18.9649 113.725 19.6366 114.198 20.2187C114.671 20.8008 115.245 21.2597 115.92 21.5955C116.596 21.909 117.35 22.0657 118.183 22.0657Z" fill="#05CB95"/>
<path id="Vector_2" d="M93.4808 27.6211C91.612 27.6211 89.8896 27.3189 88.3135 26.7144C86.7599 26.11 85.409 25.2592 84.2607 24.1622C83.1348 23.0428 82.2567 21.7444 81.6263 20.2668C80.9959 18.7892 80.6807 17.1773 80.6807 15.431C80.6807 13.6848 80.9959 12.0729 81.6263 10.5953C82.2567 9.09537 83.1348 7.79682 84.2607 6.69986C85.409 5.6029 86.7599 4.75213 88.3135 4.14767C89.8896 3.5432 91.612 3.24097 93.4808 3.24097C95.3497 3.24097 97.0608 3.5432 98.6144 4.14767C100.19 4.75213 101.541 5.6029 102.667 6.69986C103.816 7.79682 104.705 9.09537 105.335 10.5953C105.965 12.0729 106.281 13.6848 106.281 15.431C106.281 17.1773 105.965 18.7892 105.335 20.2668C104.705 21.7444 103.816 23.0428 102.667 24.1622C101.541 25.2592 100.19 26.11 98.6144 26.7144C97.0608 27.3189 95.3497 27.6211 93.4808 27.6211ZM93.4808 21.7779C94.3139 21.7779 95.0682 21.6213 95.7437 21.3078C96.4191 20.972 96.9933 20.5131 97.4661 19.931C97.9389 19.3488 98.2989 18.6772 98.5469 17.9161C98.7949 17.1325 98.9184 16.3042 98.9184 15.431C98.9184 14.5579 98.7949 13.7407 98.5469 12.9796C98.2989 12.196 97.9389 11.5132 97.4661 10.9311C96.9933 10.349 96.4191 9.90133 95.7437 9.58787C95.0682 9.25205 94.3139 9.08414 93.4808 9.08414C92.6478 9.08414 91.8935 9.25205 91.218 9.58787C90.5425 9.90133 89.9684 10.349 89.4956 10.9311C89.0227 11.5132 88.6625 12.196 88.4148 12.9796C88.1671 13.7407 88.0433 14.5579 88.0433 15.431C88.0433 16.3042 88.1671 17.1325 88.4148 17.9161C88.6625 18.6772 89.0227 19.3488 89.4956 19.931C89.9684 20.5131 90.5425 20.972 91.218 21.3078C91.8935 21.6213 92.6478 21.7779 93.4808 21.7779Z" fill="#05CB95"/>
<path id="Vector_3" d="M60.5225 27.1845L66.703 17.1772C65.6447 16.6623 64.7441 16.0242 64.0011 15.2631C63.2581 14.502 62.684 13.6288 62.2787 12.6437C61.8959 11.6363 61.7045 10.5281 61.7045 9.31918V3.67749H68.9996V9.68857C68.9996 10.0692 69.0672 10.4161 69.2023 10.7296C69.3374 11.0431 69.5175 11.3117 69.7426 11.5356C69.9903 11.737 70.2605 11.8826 70.5532 11.9721L75.5517 3.67749H83.6235L77.5105 13.4497C78.7039 13.875 79.7283 14.4795 80.5839 15.2631C81.4396 16.0242 82.0925 16.9309 82.5428 17.9832C82.9931 19.0355 83.2183 20.2108 83.2183 21.5093V27.1845H75.9232V21.2406C75.9232 20.569 75.7205 19.9757 75.3153 19.4608C74.91 18.9458 74.4147 18.6325 73.8292 18.5205L68.5943 27.1845H60.5225Z" fill="#05CB95"/>
<path id="Vector_4" d="M51.2005 27.5875C49.129 27.5875 47.2941 27.1957 45.6954 26.4121C44.1194 25.6062 42.8809 24.4644 41.9803 22.9868C41.0797 21.5093 40.6294 19.763 40.6294 17.7481V3.67749H47.7894V18.0504C47.7894 18.7668 47.9245 19.416 48.1947 19.9981C48.4873 20.5577 48.8814 20.9943 49.3767 21.3078C49.8946 21.6212 50.4913 21.7779 51.1667 21.7779C51.8647 21.7779 52.4614 21.6212 52.9567 21.3078C53.452 20.9943 53.8348 20.5577 54.105 19.9981C54.3977 19.416 54.5441 18.7668 54.5441 18.0504V3.67749H61.7041V17.7481C61.7041 19.763 61.2537 21.5093 60.3531 22.9868C59.4525 24.4644 58.2141 25.6062 56.638 26.4121C55.062 27.1957 53.2494 27.5875 51.2005 27.5875Z" fill="#05CB95"/>
<path id="Vector_5" d="M34.8933 27.4724C33.2947 27.4724 31.8988 27.1365 30.7054 26.4649C29.512 25.7933 28.589 24.9089 27.936 23.812C27.283 22.6926 26.9565 21.4613 26.9565 20.118V3.96533H34.2516V20.1852C34.2516 20.6105 34.398 20.9911 34.6907 21.327C35.0059 21.6404 35.3886 21.7971 35.839 21.7971H42.0871V27.4724H34.8933Z" fill="#05CB95"/>
<path id="Vector_6" d="M93.5048 22.675C97.5017 22.675 100.742 19.4532 100.742 15.479C100.742 11.5047 97.5017 8.28296 93.5048 8.28296C89.5078 8.28296 86.2676 11.5047 86.2676 15.479C86.2676 19.4532 89.5078 22.675 93.5048 22.675Z" fill="#05CB95"/>
<path id="Vector_7" d="M118.014 22.675C122.011 22.675 125.251 19.4532 125.251 15.479C125.251 11.5047 122.011 8.28296 118.014 8.28296C114.017 8.28296 110.777 11.5047 110.777 15.479C110.777 19.4532 114.017 22.675 118.014 22.675Z" fill="#05CB95"/>
<g id="seta">
<path id="Vector_8" d="M116.664 14.0397H94.9523C94.1529 14.0397 93.5049 14.684 93.5049 15.4789C93.5049 16.2737 94.1529 16.9181 94.9523 16.9181H116.664C117.463 16.9181 118.111 16.2737 118.111 15.4789C118.111 14.684 117.463 14.0397 116.664 14.0397Z" fill="#EAF9F9"/>
<path id="Vector_9" d="M119.929 14.6958C120.441 15.0837 120.435 15.853 119.916 16.2326L115.52 19.4462C114.879 19.9142 113.977 19.4554 113.982 18.6654L114.036 12.1674C114.042 11.3773 114.952 10.9332 115.585 11.4115L119.929 14.6958Z" fill="#EAF9F9"/>
</g>
<path id="Vector_10" d="M0.0249023 20.931C0.0249023 18.9439 1.645 17.333 3.64349 17.333C5.64199 17.333 7.26209 18.9439 7.26209 20.931V23.9054C7.26209 25.8925 5.64199 27.5034 3.64349 27.5034C1.645 27.5034 0.0249023 25.8925 0.0249023 23.9054V20.931Z" fill="#05CB95"/>
<path id="Vector_11" d="M0.0249023 12.2971C0.0249023 10.31 1.645 8.6991 3.64349 8.6991H14.5475C16.546 8.6991 18.1661 10.31 18.1661 12.2971C18.1661 14.2842 16.546 15.8951 14.5475 15.8951H3.64349C1.645 15.8951 0.0249023 14.2842 0.0249023 12.2971Z" fill="#05CB95"/>
<path id="Vector_12" d="M0.271492 3.72535C0.275468 1.73819 1.89879 0.130499 3.89727 0.134529L20.784 0.167919C22.7825 0.171852 24.3993 1.78597 24.3954 3.77303C24.3914 5.76019 22.7681 7.36788 20.7696 7.36395L3.88288 7.33046C1.88438 7.32653 0.267515 5.71251 0.271492 3.72535Z" fill="#05CB95"/>
</g>
<defs>
<clipPath id="clip0_1368_581">
<rect width="131" height="28" fill="white"/>
</clipPath>
</defs>
</svg>
